<svg width="139" height="40" viewBox="0 0 139 40" fill="none" xmlns="http://www.w3.org/2000/svg">
<path d="M19.9999 40C31.0456 40 39.9999 31.0457 39.9999 20C39.9999 8.95431 31.0456 0 19.9999 0C8.95424 0 -6.10352e-05 8.95431 -6.10352e-05 20C-6.10352e-05 31.0457 8.95424 40 19.9999 40Z" fill="white" fill-opacity="0.1"/>
<path d="M18.8424 28.0463C14.9124 27.4707 11.8964 24.0828 11.8964 19.9891C11.8964 15.8954 14.9124 12.5075 18.8424 11.9322V7.69238C12.5855 8.29084 7.69232 13.5677 7.69232 19.9891C7.69232 26.4104 12.5855 31.687 18.8424 32.2858V28.0463Z" fill="white"/>
<path d="M26.9983 12L26.8892 12.3711V23.1393L26.9983 23.2483L31.9968 20.2937L26.9983 12Z" fill="white"/>
<path d="M26.9984 12L21.9999 20.2937L26.9984 23.2483V18.0217V12Z" fill="white"/>
<path d="M26.9986 24.8742L26.9371 24.9492V28.7851L26.9986 28.9648L32.0001 21.9211L26.9986 24.8742Z" fill="white"/>
<path d="M26.9984 28.9648V24.8742L21.9999 21.9211L26.9984 28.9648Z" fill="white"/>
<path d="M26.9984 23.2482L31.9968 20.2937L26.9984 18.0217V23.2482Z" fill="white"/>
<path d="M21.9999 20.2937L26.9983 23.2482V18.0217L21.9999 20.2937Z" fill="white"/>
<g filter="url(#filter0_d_1_723)">
<path d="M68.4964 18.3261C68.0937 15.4177 65.8565 13.7302 62.9545 13.7302C59.5348 13.7302 56.9588 16.2231 56.9588 20.4547C56.9588 24.6798 59.5028 27.1791 62.9545 27.1791C66.0675 27.1791 68.1321 25.1656 68.4964 22.6663L66.1058 22.6535C65.8054 24.1876 64.5526 25.0505 62.9865 25.0505C60.8643 25.0505 59.343 23.4589 59.343 20.4547C59.343 17.5015 60.8516 15.8588 62.9929 15.8588C64.5845 15.8588 65.831 16.7601 66.1058 18.3261H68.4964Z" fill="white"/>
<path d="M71.3881 27.0001H73.7596V22.2061H76.1758L78.7454 27.0001H81.3917L78.56 21.8098C80.1005 21.1897 80.9123 19.873 80.9123 18.096C80.9123 15.5967 79.3015 13.9092 76.2972 13.9092H71.3881V27.0001ZM73.7596 20.2373V15.8907H75.9329C77.7035 15.8907 78.4961 16.7025 78.4961 18.096C78.4961 19.4895 77.7035 20.2373 75.9457 20.2373H73.7596Z" fill="white"/>
<path d="M85.4963 27.0001L86.5765 23.7721H91.4984L92.5851 27.0001H95.1163L90.5013 13.9092H87.5737L82.965 27.0001H85.4963ZM87.2157 21.8673L88.9863 16.5939H89.0886L90.8592 21.8673H87.2157Z" fill="white"/>
<path d="M97.5606 27.0001H99.932V22.5768H102.438C105.461 22.5768 107.085 20.7615 107.085 18.243C107.085 15.7437 105.48 13.9092 102.47 13.9092H97.5606V27.0001ZM99.932 20.6272V15.8907H102.105C103.882 15.8907 104.669 16.8495 104.669 18.243C104.669 19.6365 103.882 20.6272 102.118 20.6272H99.932Z" fill="white"/>
<path d="M109.865 27.0001H112.236V22.5768H114.742C117.765 22.5768 119.389 20.7615 119.389 18.243C119.389 15.7437 117.784 13.9092 114.774 13.9092H109.865V27.0001ZM112.236 20.6272V15.8907H114.409C116.186 15.8907 116.973 16.8495 116.973 18.243C116.973 19.6365 116.186 20.6272 114.422 20.6272H112.236Z" fill="white"/>
<path d="M133.866 20.4547C133.866 16.2231 131.284 13.7302 127.851 13.7302C124.412 13.7302 121.836 16.2231 121.836 20.4547C121.836 24.6798 124.412 27.1791 127.851 27.1791C131.284 27.1791 133.866 24.6862 133.866 20.4547ZM131.482 20.4547C131.482 23.4333 129.986 25.0505 127.851 25.0505C125.723 25.0505 124.22 23.4333 124.22 20.4547C124.22 17.476 125.723 15.8588 127.851 15.8588C129.986 15.8588 131.482 17.476 131.482 20.4547Z" fill="white"/>
<path d="M68.4964 18.8261H69.0704L68.9917 18.2575C68.7741 16.686 68.0548 15.4192 66.9769 14.5486C65.9026 13.6809 64.5021 13.2302 62.9545 13.2302C61.1187 13.2302 59.4826 13.9021 58.3081 15.1651C57.1354 16.4262 56.4588 18.2369 56.4588 20.4547C56.4588 22.6677 57.1265 24.4785 58.2954 25.741C59.4665 27.0059 61.1033 27.6791 62.9545 27.6791C66.3123 27.6791 68.5906 25.4868 68.9912 22.7384L69.0742 22.1694L68.4991 22.1663L66.1085 22.1535L65.6947 22.1513L65.6151 22.5574C65.3684 23.8174 64.3561 24.5505 62.9865 24.5505C62.0593 24.5505 61.2946 24.2078 60.7528 23.5588C60.2032 22.9003 59.843 21.8771 59.843 20.4547C59.843 19.0586 60.1996 18.0339 60.7503 17.3679C61.2931 16.7115 62.0599 16.3588 62.9929 16.3588C64.3779 16.3588 65.3864 17.1196 65.6133 18.4125L65.6859 18.8261H66.1058H68.4964ZM70.8881 27.0001V27.5001H71.3881H73.7596H74.2596V27.0001V22.7061H75.8765L78.3047 27.2363L78.4461 27.5001H78.7454H81.3917H82.234L81.8306 26.7606L79.2525 22.0351C80.6753 21.2566 81.4123 19.8527 81.4123 18.096C81.4123 16.7365 80.9714 15.548 80.0745 14.7017C79.1805 13.8581 77.8913 13.4092 76.2972 13.4092H71.3881H70.8881V13.9092V27.0001ZM85.4963 27.5001H85.8562L85.9704 27.1588L86.9365 24.2721H91.1392L92.1112 27.1596L92.2258 27.5001H92.5851H95.1163H95.8227L95.5879 26.8339L90.9728 13.743L90.8551 13.4092H90.5013H87.5737H87.2196L87.1021 13.7432L82.4934 26.8341L82.2589 27.5001H82.965H85.4963ZM97.0606 27.0001V27.5001H97.5606H99.932H100.432V27.0001V23.0768H102.438C104.05 23.0768 105.348 22.5907 106.245 21.7113C107.142 20.8321 107.585 19.6109 107.585 18.243C107.585 16.8856 107.147 15.6654 106.258 14.7839C105.369 13.9015 104.078 13.4092 102.47 13.4092H97.5606H97.0606V13.9092V27.0001ZM109.365 27.0001V27.5001H109.865H112.236H112.736V27.0001V23.0768H114.742C116.354 23.0768 117.652 22.5907 118.549 21.7113C119.446 20.8321 119.889 19.6109 119.889 18.243C119.889 16.8856 119.451 15.6654 118.562 14.7839C117.673 13.9015 116.382 13.4092 114.774 13.4092H109.865H109.365V13.9092V27.0001ZM74.2596 19.7373V16.3907H75.9329C76.7511 16.3907 77.2512 16.5792 77.5442 16.8426C77.8275 17.0974 77.9961 17.4938 77.9961 18.096C77.9961 18.6974 77.8283 19.0731 77.5531 19.3109C77.2636 19.5611 76.7657 19.7373 75.9457 19.7373H74.2596ZM90.1639 21.3673H87.911L89.0375 18.0124L90.1639 21.3673ZM100.432 20.1272V16.3907H102.105C102.907 16.3907 103.404 16.6057 103.702 16.8999C103.999 17.194 104.169 17.638 104.169 18.243C104.169 18.8485 103.999 19.3031 103.699 19.6061C103.401 19.9074 102.908 20.1272 102.118 20.1272H100.432ZM112.736 20.1272V16.3907H114.409C115.211 16.3907 115.708 16.6057 116.006 16.8999C116.303 17.194 116.473 17.638 116.473 18.243C116.473 18.8485 116.303 19.3031 116.003 19.6061C115.705 19.9074 115.212 20.1272 114.422 20.1272H112.736ZM134.366 20.4547C134.366 18.2366 133.688 16.4257 132.511 15.1646C131.333 13.9017 129.693 13.2302 127.851 13.2302C126.006 13.2302 124.366 13.9016 123.188 15.1647C122.013 16.426 121.336 18.2369 121.336 20.4547C121.336 22.6694 122.013 24.4802 123.188 25.7421C124.365 27.0059 126.006 27.6791 127.851 27.6791C129.693 27.6791 131.333 27.0076 132.511 25.7447C133.688 24.4837 134.366 22.6727 134.366 20.4547ZM130.982 20.4547C130.982 21.8654 130.627 22.8895 130.081 23.5514C129.544 24.203 128.783 24.5505 127.851 24.5505C126.923 24.5505 126.162 24.2033 125.623 23.5512C125.076 22.8891 124.72 21.8649 124.72 20.4547C124.72 19.0444 125.076 18.0202 125.623 17.3582C126.162 16.7061 126.923 16.3588 127.851 16.3588C128.783 16.3588 129.544 16.7063 130.081 17.3579C130.627 18.0198 130.982 19.0439 130.982 20.4547Z" stroke="black"/>
</g>
<defs>
<filter id="filter0_d_1_723" x="51.9588" y="12.7302" width="86.9072" height="23.449" filterUnits="userSpaceOnUse" color-interpolation-filters="sRGB">
<feFlood flood-opacity="0" result="BackgroundImageFix"/>
<feColorMatrix in="SourceAlpha" type="matrix" values="0 0 0 0 0 0 0 0 0 0 0 0 0 0 0 0 0 0 127 0" result="hardAlpha"/>
<feOffset dy="4"/>
<feGaussianBlur stdDeviation="2"/>
<feComposite in2="hardAlpha" operator="out"/>
<feColorMatrix type="matrix" values="0 0 0 0 0 0 0 0 0 0 0 0 0 0 0 0 0 0 0.25 0"/>
<feBlend mode="normal" in2="BackgroundImageFix" result="effect1_dropShadow_1_723"/>
<feBlend mode="normal" in="SourceGraphic" in2="effect1_dropShadow_1_723" result="shape"/>
</filter>
</defs>
</svg>
